<svg xmlns="http://www.w3.org/2000/svg" viewBox="0.00 3.72 29.48 29.48" width="29" height="29">
  <path fill="#00A972" d="M14.1525 30.8939C14.1525 31.6833 14.0739 32.4546 13.9257 33.2017C12.005 32.9416 10.1993 31.7529 9.3221 29.6356L9.24648 29.4541C8.21506 26.9648 6.23994 24.9867 3.74759 23.9552L3.56006 23.8766C1.45185 23.0055 0.263148 21.1998 0 19.2821C0.747099 19.1339 1.52142 19.0552 2.31389 19.0552C8.85327 19.0552 14.1525 24.3545 14.1525 30.8939ZM14.1525 6.03395C14.1525 5.2445 14.0739 4.47018 13.9257 3.72308C12.005 3.98321 10.1993 5.17191 9.32512 7.28919L9.24951 7.4737C8.22111 9.96302 6.24296 11.9381 3.75667 12.9696L3.56611 13.0482C1.44883 13.9223 0.263148 15.7251 0 17.6427C0.747099 17.7909 1.52142 17.8696 2.31389 17.8696C8.85327 17.8696 14.1525 12.5703 14.1525 6.03092V6.03395ZM20.1596 29.6356L20.2352 29.4541C21.2666 26.9648 23.2448 24.9867 25.7341 23.9552L25.9186 23.8796C28.0328 23.0055 29.2215 21.1998 29.4847 19.2791C28.7376 19.1309 27.9633 19.0522 27.1708 19.0522C20.6314 19.0522 15.3322 24.3515 15.3322 30.8909C15.3322 31.6803 15.4108 32.4516 15.559 33.1987C17.4797 32.9386 19.2854 31.7499 20.1596 29.6326V29.6356ZM27.1708 17.8726C27.9633 17.8726 28.7346 17.7939 29.4847 17.6457C29.2215 15.7281 28.0359 13.9223 25.9186 13.0482L25.7311 12.9696C23.2417 11.9381 21.2666 9.96302 20.2352 7.4737L20.1596 7.28919C19.2854 5.17191 17.4797 3.98623 15.559 3.72308C15.4108 4.47018 15.3322 5.24148 15.3322 6.03395C15.3322 12.5733 20.6314 17.8726 27.1708 17.8726Z"/>
</svg>
